<!DOCTYPE svg PUBLIC "-//W3C//DTD SVG 20010904//EN" "http://www.w3.org/TR/2001/REC-SVG-20010904/DTD/svg10.dtd">
<svg version="1.0" xmlns="http://www.w3.org/2000/svg" width="55px" height="56px" viewBox="0 0 550 560" preserveAspectRatio="xMidYMid meet">
<g id="layer101" fill="#224697" stroke="none">
 <path d="M0 280 l0 -280 275 0 275 0 0 280 0 280 -275 0 -275 0 0 -280z"/>
 </g>
<g id="layer102" fill="#eb383c" stroke="none">
 <path d="M0 280 l0 -280 275 0 275 0 0 85 0 84 -52 -24 c-29 -14 -57 -25 -63 -25 -6 0 -9 26 -7 64 l4 63 59 28 c40 19 59 35 59 47 0 15 -3 16 -25 6 -21 -9 -32 -8 -61 5 -31 15 -35 21 -32 50 3 28 10 36 61 62 56 29 57 30 57 72 l0 43 -75 0 c-74 0 -75 0 -75 -26 0 -20 -9 -29 -44 -45 -42 -18 -45 -22 -48 -61 -2 -23 -9 -43 -16 -46 -9 -3 -12 14 -12 60 l0 64 53 26 52 27 -192 0 -193 1 0 -280z m240 125 c0 -60 -2 -66 -25 -77 -21 -9 -32 -8 -60 5 -30 14 -35 22 -35 50 0 32 4 36 58 60 31 14 58 26 60 26 1 1 2 -28 2 -64z m0 -135 c0 -24 -7 -33 -40 -50 -34 -17 -40 -25 -40 -53 0 -22 -7 -36 -20 -45 -20 -12 -21 -11 -18 55 l3 68 50 27 c63 34 65 34 65 -2z m160 -129 c0 -65 -3 -69 -72 -99 l-48 -21 0 64 0 65 48 24 c69 36 72 35 72 -33z"/>
 </g>
<g id="layer103" fill="#faf8f9" stroke="none">
 <path d="M0 513 l1 -48 57 -26 57 -26 60 28 60 27 -37 16 c-32 14 -38 21 -38 46 l0 30 -80 0 -80 0 0 -47z"/>
 <path d="M228 532 l52 -26 53 26 52 27 -105 0 -105 0 53 -27z"/>
 <path d="M400 534 c0 -20 -8 -29 -40 -42 -22 -9 -40 -19 -40 -22 0 -3 24 -18 54 -32 l54 -27 61 32 c60 31 61 32 61 74 l0 43 -75 0 c-74 0 -75 0 -75 -26z"/>
 <path d="M240 363 c0 -36 -41 -51 -85 -30 -31 15 -38 15 -71 1 -28 -12 -43 -13 -61 -5 -20 9 -23 8 -23 -9 0 -14 17 -28 59 -50 l59 -29 56 29 c31 17 58 30 61 30 3 0 5 -13 5 -30 0 -24 -7 -33 -35 -48 l-35 -18 55 -27 56 -27 57 29 57 29 -42 17 c-37 15 -43 21 -43 46 l0 29 57 -29 58 -29 62 31 c42 21 63 37 63 49 0 15 -3 16 -25 6 -21 -9 -32 -8 -60 5 -31 15 -38 15 -71 1 -46 -19 -84 -7 -84 28 0 19 -6 23 -35 24 -30 0 -35 -3 -35 -23z"/>
 <path d="M0 85 l0 -85 275 0 275 0 0 85 0 84 -52 -24 c-29 -14 -63 -25 -75 -25 -15 0 -23 -7 -25 -22 -2 -17 -19 -31 -61 -51 l-57 -27 -60 30 c-49 25 -60 35 -60 55 0 27 -9 32 -27 14 -7 -7 -28 -2 -72 20 l-61 31 0 -85z"/>
 </g>

</svg>